<svg id="Layer_1" data-name="Layer 1" xmlns="http://www.w3.org/2000/svg" viewBox="0 0 864 864"><defs><style>.cls-1{fill:#f05051;}.cls-2{fill:#fff;}</style></defs><title>Christie Logo</title><circle class="cls-1" cx="432" cy="432" r="432"/><path class="cls-2" d="M505,480.44,481.76,503.7l29.77,29.77a122,122,0,0,1-25,34.51C468.13,586.09,446.6,594.74,424,595.6c-5.84-.13-12-.45-18.47-1-24-3.37-48.6-14.72-71.5-32.18a2.92,2.92,0,0,1-.1-.7c0-2.92,7-9.91,12.1-15L557.79,335l26.51,26.5c11.59,11.6,15.9,18.1,15.9,24,0,5.68-3.77,13.61-12.59,26.52l-5.19,7.56,19.79,19.78,53.62-57.26-69.2-69.19c1.72,0,3.44.05,5.17.05,9.71,0,19.61-.14,30.32-.48a46.49,46.49,0,0,0,39.6-68.72,44.18,44.18,0,0,0-25.84-21c0-.05,0-.1,0-.15l-.15-.06a44.23,44.23,0,0,0-21-25.83A46,46,0,0,0,592.6,191a46.77,46.77,0,0,0-46.66,45.27c-.34,10.71-.49,20.61-.49,30.32,0,1.73,0,3.45.06,5.17l-69.19-69.2-57.26,53.61L438.84,276l7.56-5.2c12.91-8.81,20.84-12.58,26.52-12.58,5.92,0,12.42,4.31,24,15.9l26.51,26.51L311.67,512.36c-5.09,5.11-12.1,12.11-15,12.11a3.73,3.73,0,0,1-.71-.1c-17.46-22.91-28.8-47.52-32.18-71.5-.54-6.44-.85-12.63-1-18.46.85-22.63,9.5-44.15,27.61-62.54a122.34,122.34,0,0,1,34.52-25l29.77,29.78L378,353.36l-85.14-85.13c-62.53,70.22-85.07,135.23-87.73,142.23s-8.84,36-8.46,54.81c.12,5.81,1.55,66.23,29,112.54,10.62,17.9,11.39,34-1,55.66,0,.07-.12.2-.12.2s.25-.13.37-.21c-.07.12-.12.24-.2.37l.2-.1c21.65-12.39,37.76-11.63,55.66-1,46.3,27.48,106.73,28.92,112.54,29,18.8.38,47.82-5.79,54.81-8.45s72-25.2,142.23-87.73Zm65.54-192.62c-.22-7.08-.56-14.18-.56-21.27,0-9.84.16-19.69.45-29.53a22.28,22.28,0,0,1,22.14-21.49,21.17,21.17,0,0,1,10.23,2.66c10.06,5.53,13.34,18.43,7.38,29-.35.62-.73,1.25-1.4,2.4l2.39-1.41c10.57-5.95,23.47-2.67,29,7.38a21.19,21.19,0,0,1,2.65,10.24,22.25,22.25,0,0,1-21.48,22.13q-14.77.45-29.54.46C584.74,288.37,577.65,288,570.57,287.82Z" transform="translate(0)"/></svg>